<svg width="85" height="75" viewBox="0 0 85 75" fill="none" xmlns="http://www.w3.org/2000/svg">
<rect width="85" height="75" fill="white"/>
<path d="M42 32.1771V33.9086M42 23.5886V25.2M42 38.1257C48 38.1257 52.2857 36 52.2857 31.2686C52.2857 26.1257 49.7143 22.6971 44.5714 20.1257L46.5943 17.52C46.6971 17.349 46.7528 17.1539 46.7559 16.9545C46.7589 16.755 46.7092 16.5583 46.6117 16.3843C46.5143 16.2102 46.3725 16.0651 46.2009 15.9635C46.0292 15.8618 45.8338 15.8074 45.6343 15.8057H38.3657C38.1662 15.8074 37.9708 15.8618 37.7991 15.9635C37.6275 16.0651 37.4857 16.2102 37.3883 16.3843C37.2908 16.5583 37.2411 16.755 37.2441 16.9545C37.2472 17.1539 37.3029 17.349 37.4057 17.52L39.4286 20.1429C34.2857 22.7314 31.7143 26.16 31.7143 31.3029C31.7143 36 36 38.1257 42 38.1257Z" stroke="#1DC071" stroke-width="1.71429" stroke-linecap="round" stroke-linejoin="round"/>
<path d="M40.2857 31.3886C40.4949 31.6369 40.7581 31.8339 41.0553 31.9647C41.3525 32.0954 41.6756 32.1564 42 32.1429C42.4958 32.1767 42.9854 32.0169 43.3658 31.6972C43.7462 31.3775 43.9879 30.9228 44.04 30.4286C43.9879 29.9344 43.7462 29.4796 43.3658 29.1599C42.9854 28.8402 42.4958 28.6805 42 28.7143C41.5042 28.7481 41.0146 28.5883 40.6342 28.2686C40.2538 27.9489 40.0121 27.4942 39.96 27C40.0079 26.5041 40.2484 26.0467 40.6298 25.7262C41.0113 25.4056 41.5032 25.2475 42 25.2857C42.3187 25.2662 42.6377 25.3176 42.9341 25.4362C43.2305 25.5547 43.497 25.7375 43.7143 25.9714" stroke="#1DC071" stroke-width="1.71429" stroke-linecap="round" stroke-linejoin="round"/>
<path d="M9.134 53C9.134 53.348 9.07 53.704 8.942 54.068C8.814 54.432 8.622 54.77 8.366 55.082C8.11 55.39 7.788 55.64 7.4 55.832C7.012 56.02 6.558 56.114 6.038 56.114C5.318 56.114 4.704 55.922 4.196 55.538C3.688 55.154 3.3 54.62 3.032 53.936C2.768 53.252 2.636 52.466 2.636 51.578C2.636 50.686 2.768 49.9 3.032 49.22C3.3 48.54 3.688 48.01 4.196 47.63C4.704 47.246 5.318 47.054 6.038 47.054C6.642 47.054 7.156 47.182 7.58 47.438C8.008 47.69 8.346 48.012 8.594 48.404C8.846 48.796 9.008 49.198 9.08 49.61C9.116 49.798 9.134 49.978 9.134 50.15H8.39C8.39 50.042 8.38 49.916 8.36 49.772C8.308 49.42 8.184 49.09 7.988 48.782C7.796 48.47 7.536 48.216 7.208 48.02C6.884 47.824 6.494 47.726 6.038 47.726C5.506 47.726 5.042 47.878 4.646 48.182C4.25 48.482 3.942 48.918 3.722 49.49C3.502 50.062 3.392 50.758 3.392 51.578C3.392 52.394 3.502 53.092 3.722 53.672C3.942 54.248 4.25 54.688 4.646 54.992C5.042 55.292 5.506 55.442 6.038 55.442C6.418 55.442 6.754 55.37 7.046 55.226C7.338 55.082 7.584 54.892 7.784 54.656C7.984 54.416 8.134 54.152 8.234 53.864C8.338 53.576 8.39 53.288 8.39 53H9.134ZM16.3755 47.15V56H15.6315V51.548L15.9675 51.92H11.0895L11.4255 51.548V56H10.6815V47.15H11.4255V51.65L11.0895 51.26H15.9675L15.6315 51.65V47.15H16.3755ZM17.7158 56L20.2298 47.12H21.3758L23.8718 56H23.0978L20.7938 47.63H20.8058L18.4898 56H17.7158ZM18.8678 53.534V52.88H22.7378V53.534H18.8678ZM25.2911 56V47.15H26.0231V56H25.2911ZM28.6575 56H27.9315V47.15H29.1435L33.2835 55.568L33.2175 55.604V47.15H33.9435V56H32.7135L28.5855 47.594L28.6575 47.558V56ZM36.1794 47.804L36.5154 47.39V51.542L36.2634 51.296H39.8334V51.95H36.2634L36.5154 51.698V56H35.7714V47.15H40.3674V47.804H36.1794ZM44.3889 56.114C43.8849 56.114 43.4229 56.012 43.0029 55.808C42.5829 55.6 42.2169 55.302 41.9049 54.914C41.5969 54.522 41.3569 54.044 41.1849 53.48C41.0169 52.916 40.9329 52.278 40.9329 51.566C40.9329 50.85 41.0169 50.214 41.1849 49.658C41.3569 49.098 41.5969 48.624 41.9049 48.236C42.2169 47.848 42.5829 47.554 43.0029 47.354C43.4269 47.154 43.8889 47.054 44.3889 47.054C44.8929 47.054 45.3549 47.154 45.7749 47.354C46.1989 47.554 46.5649 47.848 46.8729 48.236C47.1849 48.624 47.4249 49.098 47.5929 49.658C47.7649 50.214 47.8509 50.85 47.8509 51.566C47.8509 52.278 47.7649 52.916 47.5929 53.48C47.4249 54.044 47.1849 54.522 46.8729 54.914C46.5649 55.302 46.1989 55.6 45.7749 55.808C45.3549 56.012 44.8929 56.114 44.3889 56.114ZM44.3889 55.442C44.9209 55.442 45.3889 55.292 45.7929 54.992C46.2009 54.692 46.5189 54.254 46.7469 53.678C46.9789 53.102 47.0949 52.398 47.0949 51.566C47.0949 50.73 46.9789 50.028 46.7469 49.46C46.5149 48.888 46.1949 48.456 45.7869 48.164C45.3829 47.872 44.9169 47.726 44.3889 47.726C43.8649 47.726 43.3989 47.872 42.9909 48.164C42.5829 48.456 42.2629 48.888 42.0309 49.46C41.7989 50.028 41.6829 50.73 41.6829 51.566C41.6829 52.402 41.7989 53.108 42.0309 53.684C42.2629 54.26 42.5829 54.698 42.9909 54.998C43.3989 55.294 43.8649 55.442 44.3889 55.442ZM49.4003 56V47.15H52.3043C53.0763 47.15 53.6683 47.336 54.0803 47.708C54.4923 48.08 54.6983 48.658 54.6983 49.442C54.6983 49.922 54.6083 50.328 54.4283 50.66C54.2483 50.992 54.0343 51.25 53.7863 51.434C53.5383 51.614 53.3123 51.716 53.1083 51.74C53.3163 51.756 53.5243 51.814 53.7323 51.914C53.9403 52.014 54.1143 52.168 54.2543 52.376C54.3943 52.584 54.4643 52.86 54.4643 53.204C54.4643 53.548 54.4643 53.902 54.4643 54.266C54.4643 54.63 54.4643 54.986 54.4643 55.334C54.4643 55.498 54.4763 55.642 54.5003 55.766C54.5283 55.886 54.5563 55.964 54.5843 56H53.8343C53.8103 55.96 53.7843 55.882 53.7563 55.766C53.7323 55.646 53.7203 55.502 53.7203 55.334C53.7203 55.006 53.7203 54.668 53.7203 54.32C53.7203 53.972 53.7203 53.634 53.7203 53.306C53.7203 52.882 53.5843 52.572 53.3123 52.376C53.0443 52.18 52.6743 52.082 52.2023 52.082H49.9103L50.1323 51.794V56H49.4003ZM50.1323 51.734L49.9103 51.422H52.2143C52.5263 51.422 52.8123 51.344 53.0723 51.188C53.3323 51.028 53.5403 50.804 53.6963 50.516C53.8563 50.228 53.9363 49.89 53.9363 49.502C53.9363 48.894 53.7823 48.46 53.4743 48.2C53.1663 47.936 52.7183 47.804 52.1303 47.804H49.8923L50.1323 47.48V51.734ZM62.1255 47.15V56H61.3815V51.548L61.7175 51.92H56.8395L57.1755 51.548V56H56.4315V47.15H57.1755V51.65L56.8395 51.26H61.7175L61.3815 51.65V47.15H62.1255ZM64.363 47.804L64.699 47.39V51.494L64.507 51.23H68.065V51.89H64.507L64.699 51.626V55.76L64.363 55.346H68.611V56H63.955V47.15H68.611V47.804H64.363ZM70.4354 56V47.15H71.1794V55.76L70.8434 55.346H74.7434V56H70.4354ZM76.9802 56H76.2362V47.15H78.5402C79.2242 47.15 79.7862 47.276 80.2262 47.528C80.6702 47.78 80.9982 48.116 81.2102 48.536C81.4262 48.956 81.5342 49.424 81.5342 49.94C81.5342 50.452 81.4242 50.924 81.2042 51.356C80.9842 51.788 80.6522 52.136 80.2082 52.4C79.7642 52.66 79.2082 52.79 78.5402 52.79H76.9802V56ZM76.9802 52.514L76.6442 52.136H78.4382C78.9742 52.136 79.4142 52.042 79.7582 51.854C80.1062 51.662 80.3642 51.402 80.5322 51.074C80.7002 50.742 80.7842 50.364 80.7842 49.94C80.7842 49.512 80.7042 49.138 80.5442 48.818C80.3842 48.498 80.1322 48.25 79.7882 48.074C79.4442 47.894 78.9942 47.804 78.4382 47.804H76.6442L76.9802 47.39V52.514Z" fill="black"/>
</svg>
