<svg width="24" height="25" viewBox="0 0 24 25" fill="none" xmlns="http://www.w3.org/2000/svg">
<path d="M12 18.1771V19.9086M12 9.58857V11.2M12 24.1257C18 24.1257 22.2857 22 22.2857 17.2686C22.2857 12.1257 19.7143 8.69714 14.5714 6.12571L16.5943 3.52C16.697 3.34903 16.7528 3.15394 16.7559 2.95449C16.7589 2.75504 16.7092 2.55832 16.6117 2.38428C16.5143 2.21024 16.3725 2.06506 16.2009 1.96345C16.0292 1.86185 15.8337 1.80743 15.6343 1.80571H8.36571C8.16624 1.80743 7.97077 1.86185 7.79912 1.96345C7.62746 2.06506 7.48571 2.21024 7.38825 2.38428C7.29079 2.55832 7.24107 2.75504 7.24413 2.95449C7.2472 3.15394 7.30294 3.34903 7.40571 3.52L9.42856 6.14286C4.28571 8.73143 1.71428 12.16 1.71428 17.3029C1.71428 22 5.99999 24.1257 12 24.1257Z" stroke="#1DC071" stroke-width="1.71429" stroke-linecap="round" stroke-linejoin="round"/>
<path d="M10.2857 17.3886C10.4949 17.6369 10.7581 17.8339 11.0553 17.9647C11.3525 18.0954 11.6756 18.1564 12 18.1429C12.4958 18.1767 12.9853 18.0169 13.3658 17.6972C13.7462 17.3775 13.9879 16.9228 14.04 16.4286C13.9879 15.9344 13.7462 15.4796 13.3658 15.1599C12.9853 14.8402 12.4958 14.6805 12 14.7143C11.5042 14.7481 11.0146 14.5883 10.6342 14.2686C10.2538 13.9489 10.0121 13.4942 9.95999 13C10.0079 12.5041 10.2484 12.0467 10.6298 11.7262C11.0113 11.4056 11.5032 11.2475 12 11.2857C12.3187 11.2662 12.6377 11.3176 12.9341 11.4362C13.2305 11.5547 13.497 11.7375 13.7143 11.9714" stroke="#1DC071" stroke-width="1.71429" stroke-linecap="round" stroke-linejoin="round"/>
</svg>
